<svg width="48" height="12" viewBox="0 0 48 12" fill="none" xmlns="http://www.w3.org/2000/svg">
<g clip-path="url(#clip0_629_847)">
<mask id="mask0_629_847" style="mask-type:alpha" maskUnits="userSpaceOnUse" x="0" y="-1" width="48" height="13">
<path d="M40.2646 11.8749H40.512V10.7297H40.5162L40.9276 11.8749H41.1416L41.5531 10.7297H41.5573V11.8749H41.8047V10.391H41.443L41.0439 11.5528H41.0397L40.6305 10.391H40.2646V11.8749H40.2646ZM38.8953 10.6154H39.3648V11.8749H39.6246V10.6154H40.0964V10.391H38.8953V10.6154H38.8953ZM35.8761 11.8749L47.7511 -8.58073e-05H40.6039L28.7293 11.8749H35.8764H35.8761ZM34.1735 5.17148H19.798C15.4169 5.17148 14.6502 5.40378 12.7736 7.28028C11.0185 9.03532 8.16764 11.8751 8.16764 11.8751H14.3949L15.8805 10.3895C16.8572 9.41279 17.3609 9.31162 19.4118 9.31162H30.0336L34.1732 5.1716L34.1735 5.17148ZM12.582 6.43343C11.2859 7.65632 8.4657 10.3957 6.94571 11.875H0.250977C0.250977 11.875 5.61531 6.52606 8.59712 3.59095C11.669 0.666735 13.2003 -0.000244141 18.835 -0.000244141H39.3455L34.9046 4.44061H19.2518C15.2926 4.44061 14.4032 4.71497 12.5824 6.43339L12.582 6.43343Z" fill="white"/>
</mask>
<g mask="url(#mask0_629_847)">
<path d="M40.2646 11.8749H40.512V10.7297H40.5162L40.9276 11.8749H41.1416L41.5531 10.7297H41.5573V11.8749H41.8047V10.391H41.443L41.0439 11.5528H41.0397L40.6305 10.391H40.2646V11.8749H40.2646ZM38.8953 10.6154H39.3648V11.8749H39.6246V10.6154H40.0964V10.391H38.8953V10.6154H38.8953ZM35.8761 11.8749L47.7511 -8.58073e-05H40.6039L28.7293 11.8749H35.8764H35.8761ZM34.1735 5.17148H19.798C15.4169 5.17148 14.6502 5.40378 12.7736 7.28028C11.0185 9.03532 8.16764 11.8751 8.16764 11.8751H14.3949L15.8805 10.3895C16.8572 9.41279 17.3609 9.31162 19.4118 9.31162H30.0336L34.1732 5.1716L34.1735 5.17148ZM12.582 6.43343C11.2859 7.65632 8.4657 10.3957 6.94571 11.875H0.250977C0.250977 11.875 5.61531 6.52606 8.59712 3.59095C11.669 0.666735 13.2003 -0.000244141 18.835 -0.000244141H39.3455L34.9046 4.44061H19.2518C15.2926 4.44061 14.4032 4.71497 12.5824 6.43339L12.582 6.43343Z" fill="#F6F6F9"/>
</g>
</g>
<defs>
<clipPath id="clip0_629_847">
<rect width="47.5" height="11.875" fill="white" transform="translate(0.25)"/>
</clipPath>
</defs>
</svg>
