<svg width="26" height="26" viewBox="0 0 26 26" fill="none" xmlns="http://www.w3.org/2000/svg">
<path d="M12.9898 1.93726C6.71074 1.93472 1.625 7.01792 1.625 13.2919C1.625 18.2533 4.80645 22.4707 9.23711 24.0195C9.83379 24.1693 9.74238 23.7453 9.74238 23.4558V21.488C6.29688 21.8917 6.15723 19.6117 5.92617 19.2308C5.45898 18.4335 4.35449 18.2304 4.68457 17.8496C5.46914 17.4459 6.26895 17.9511 7.1957 19.3197C7.86602 20.3125 9.17363 20.1449 9.83633 19.9798C9.98105 19.3832 10.2908 18.85 10.7174 18.4361C7.14746 17.7962 5.65957 15.6177 5.65957 13.0279C5.65957 11.771 6.07344 10.6158 6.88594 9.68394C6.36797 8.1478 6.93418 6.83257 7.01035 6.63706C8.48555 6.50503 10.0191 7.69331 10.1385 7.78726C10.9764 7.56128 11.9336 7.44194 13.0051 7.44194C14.0816 7.44194 15.0414 7.56636 15.8869 7.79487C16.1738 7.57651 17.5957 6.55581 18.9668 6.68023C19.0404 6.87573 19.5939 8.1605 19.1064 9.67632C19.9291 10.6107 20.348 11.7761 20.348 13.0355C20.348 15.6304 18.85 17.8115 15.2699 18.4412C15.5766 18.7427 15.82 19.1024 15.9861 19.4991C16.1522 19.8958 16.2376 20.3216 16.2373 20.7517V23.6082C16.2576 23.8367 16.2373 24.0626 16.6182 24.0626C21.1148 22.5468 24.3521 18.299 24.3521 13.2945C24.3521 7.01792 19.2639 1.93726 12.9898 1.93726Z" fill="#F6F6F9"/>
</svg>
