<svg width="64" height="64" viewBox="0 0 64 64" fill="none" xmlns="http://www.w3.org/2000/svg">
<rect width="64" height="64" rx="12" fill="#060609"/>
<g clip-path="url(#clip0_804_3407)">
<mask id="mask0_804_3407" style="mask-type:alpha" maskUnits="userSpaceOnUse" x="7" y="25" width="50" height="14">
<path d="M48.9496 38.1875H49.2075V36.9941H49.2118L49.6406 38.1875H49.8636L50.2924 36.9941H50.2967V38.1875H50.5546V36.6411H50.1776L49.7618 37.8518H49.7574L49.331 36.6411H48.9497V38.1875H48.9496ZM47.5226 36.875H48.012V38.1875H48.2827V36.875H48.7743V36.6411H47.5226V36.875H47.5226ZM44.3763 38.1875L56.7513 25.8125H49.3032L36.9286 38.1875H44.3767H44.3763ZM42.6021 31.2018H27.6213C23.0557 31.2018 22.2567 31.4439 20.3011 33.3994C18.4721 35.2283 15.5012 38.1877 15.5012 38.1877H21.9907L23.5388 36.6396C24.5567 35.6217 25.0816 35.5163 27.2188 35.5163H38.2878L42.6018 31.2019L42.6021 31.2018ZM20.1014 32.5169C18.7507 33.7913 15.8118 36.646 14.2278 38.1875H7.25122C7.25122 38.1875 12.8414 32.6134 15.9488 29.5547C19.15 26.5074 20.7457 25.8123 26.6177 25.8123H47.9918L43.3639 30.4402H27.052C22.9262 30.4402 21.9993 30.7261 20.1018 32.5169L20.1014 32.5169Z" fill="white"/>
</mask>
<g mask="url(#mask0_804_3407)">
<path d="M48.9496 38.1875H49.2075V36.9941H49.2118L49.6406 38.1875H49.8636L50.2924 36.9941H50.2967V38.1875H50.5546V36.6411H50.1776L49.7618 37.8518H49.7574L49.331 36.6411H48.9497V38.1875H48.9496ZM47.5226 36.875H48.012V38.1875H48.2827V36.875H48.7743V36.6411H47.5226V36.875H47.5226ZM44.3763 38.1875L56.7513 25.8125H49.3032L36.9286 38.1875H44.3767H44.3763ZM42.6021 31.2018H27.6213C23.0557 31.2018 22.2567 31.4439 20.3011 33.3994C18.4721 35.2283 15.5012 38.1877 15.5012 38.1877H21.9907L23.5388 36.6396C24.5567 35.6217 25.0816 35.5163 27.2188 35.5163H38.2878L42.6018 31.2019L42.6021 31.2018ZM20.1014 32.5169C18.7507 33.7913 15.8118 36.646 14.2278 38.1875H7.25122C7.25122 38.1875 12.8414 32.6134 15.9488 29.5547C19.15 26.5074 20.7457 25.8123 26.6177 25.8123H47.9918L43.3639 30.4402H27.052C22.9262 30.4402 21.9993 30.7261 20.1018 32.5169L20.1014 32.5169Z" fill="#E10600"/>
</g>
</g>
<defs>
<clipPath id="clip0_804_3407">
<rect width="49.5" height="12.375" fill="white" transform="translate(7.25 25.8125)"/>
</clipPath>
</defs>
</svg>
