<?xml version="1.0" standalone="no"?>
<!DOCTYPE svg PUBLIC "-//W3C//DTD SVG 20010904//EN"
 "http://www.w3.org/TR/2001/REC-SVG-20010904/DTD/svg10.dtd">
<svg version="1.0" xmlns="http://www.w3.org/2000/svg"
 width="700.000000pt" height="700.000000pt" viewBox="0 0 700.000000 700.000000"
 preserveAspectRatio="xMidYMid meet">
<metadata>
Created by potrace 1.14, written by Peter Selinger 2001-2017
</metadata>
<g transform="translate(0.000000,700.000000) scale(0.100000,-0.100000)"
fill="#000000" stroke="none">
<path d="M2329 4366 c-2 -2 -33 -7 -69 -11 -352 -36 -551 -112 -800 -309 -124
-98 -124 -99 -1025 -990 l-430 -426 493 0 493 0 23 23 c45 44 570 553 611 592
23 22 82 79 131 126 224 216 368 302 546 324 16 2 41 6 56 9 72 14 322 17
1488 17 l1261 1 324 324 324 324 -1711 0 c-942 -1 -1713 -3 -1715 -4z"/>
<path d="M5075 3500 l-870 -870 525 0 525 0 870 870 870 870 -525 0 -525 0
-870 -870z"/>
<path d="M2519 3606 c-2 -2 -40 -6 -84 -10 -202 -17 -344 -76 -490 -205 -50
-43 -243 -232 -430 -420 l-340 -341 455 0 455 1 152 148 c162 159 205 188 318
212 46 9 269 13 948 13 l887 1 303 303 302 302 -1236 0 c-680 -1 -1238 -2
-1240 -4z"/>
<path d="M5723 2842 c-38 -5 -28 -32 11 -32 l34 0 -2 -87 c-1 -76 1 -88 17
-91 15 -3 17 6 17 87 l0 91 35 0 c40 0 52 29 13 31 -13 0 -41 1 -63 2 -22 1
-50 1 -62 -1z"/>
<path d="M5900 2739 c0 -89 3 -109 15 -109 11 0 15 18 17 83 l3 82 30 -82 c21
-59 34 -83 47 -83 12 0 24 23 45 83 l28 82 3 -82 c2 -60 7 -83 17 -87 15 -5
17 11 17 159 0 55 -1 55 -27 55 -14 0 -25 -1 -25 -2 0 -2 -13 -41 -29 -88 -17
-49 -32 -79 -35 -70 -3 8 -16 46 -29 84 -20 58 -28 71 -50 77 l-27 7 0 -109z"/>
</g>
</svg>
